<svg width="82" height="82" viewBox="0 0 82 82" fill="none" xmlns="http://www.w3.org/2000/svg">
<rect width="82" height="82" rx="40" fill="#F5F9FF"/>
<g clip-path="url(#clip0_2518_100404)">
<path d="M41 65.0001C54.2548 65.0001 65 54.2549 65 41.0001C65 27.7452 54.2548 17 41 17C27.7452 17 17 27.7452 17 41.0001C17 54.2549 27.7452 65.0001 41 65.0001Z" fill="#61B7FE"/>
<path fill-rule="evenodd" clip-rule="evenodd" d="M39.1427 47.8793C38.8483 47.8793 38.8483 48.9988 39.1427 48.9988H43.8525C44.1469 48.9988 44.1469 47.8793 43.8475 47.8756C43.8475 47.8756 42.4582 47.1775 42.3791 46.3875C42.3173 45.7718 42.9693 44.5938 42.9693 44.5938C41.7918 44.967 41.2031 44.967 40.0256 44.5938C40.0256 44.5938 40.6923 45.7819 40.6095 46.3949C40.4901 47.279 39.1425 47.8793 39.1425 47.8793H39.1427Z" fill="#FFC926"/>
<path fill-rule="evenodd" clip-rule="evenodd" d="M34 28.9219C34 37.6911 37 44.9988 41.5 44.9988C46 44.9988 49 37.6911 49 28.9219H34ZM39.1003 48.9988H43.9003C43.9003 51.6655 44.5003 51.6655 46.0004 52.9988H37.0002C38.5003 51.6655 39.1003 51.6655 39.1003 48.9988Z" fill="#FFC926"/>
<path d="M46.028 53H37V55H46.028V53Z" fill="#FFC926"/>
<path d="M46.851 55H36.149C36.0667 55 36 55.0666 36 55.1489V56.851C36 56.9332 36.0667 57 36.149 57H46.851C46.9333 57 47 56.9332 47 56.851V55.1489C47 55.0666 46.9333 55 46.851 55Z" fill="#FFC926"/>
<path fill-rule="evenodd" clip-rule="evenodd" d="M34.077 28H27C27 37.375 33.6997 41.8808 37.877 43.0001L34.077 28ZM36.222 40.7001C34.3001 39.5905 29.3 35.5 29.3 30H34.077L36.222 40.7001ZM48.723 28H56C56 37.375 49.3003 41.8808 45.123 43.0001L48.723 28ZM46.778 40.7001C48.6999 39.5905 53.6999 35.5 53.6999 30H48.723" fill="#FFC926"/>
<path fill-rule="evenodd" clip-rule="evenodd" d="M34 26V28.9231H49V26H34Z" fill="#FFC926"/>
</g>
<defs>
<clipPath id="clip0_2518_100404">
<rect width="48" height="48" fill="white" transform="translate(17 17)"/>
</clipPath>
</defs>
</svg>
