<svg width="82" height="82" fill="none" xmlns="http://www.w3.org/2000/svg"><rect width="82" height="82" rx="40" fill="#F5F9FF"/><g clip-path="url(#a)"><path d="m39.996 24.463-19.65 19.64a1.55 1.55 0 0 0 .19 2.17l14.19 14.19a1.55 1.55 0 0 0 2.17.19l19.64-19.65a5 5 0 0 0 1.39-2.87l2.07-15.13a1.862 1.862 0 0 0-2-2l-15.14 2.08a5 5 0 0 0-2.86 1.38Z" fill="#61B7FE" stroke="#61B7FE" stroke-width="1.5" stroke-linejoin="round"/><path d="m37.535 32.155-9.9 9.9a2 2 0 0 0 0 2.828l8.486 8.485a2 2 0 0 0 2.829 0l9.9-9.899a2 2 0 0 0 0-2.828l-8.486-8.486a2 2 0 0 0-2.829 0Z" fill="#FFC926"/><path d="M41.166 45.682h-5.09c-4.11 0-4.11-5.09 0-5.09 0-4.11 5.09-4.11 5.09 0v5.09Z" fill="#fff" stroke="#fff" stroke-width="2" stroke-linejoin="round"/><path d="M54.5 30.03a2.5 2.5 0 1 0-3.535-3.536A2.5 2.5 0 0 0 54.5 30.03Z" fill="#fff"/></g><defs><clipPath id="a"><path fill="#fff" transform="translate(17 17)" d="M0 0h47v47H0z"/></clipPath></defs></svg>