<svg width="78" height="78" fill="none" xmlns="http://www.w3.org/2000/svg"><rect width="78" height="78" rx="39" fill="#F5F9FF"/><g clip-path="url(#a)"><path d="M59.5 33.5h-18L37 34l.5 16H51l5.5 3v-2l3-2V33.5Z" fill="#61B7FE" stroke="#61B7FE"/><path d="M18 25h18l4.5.5-.5 16H26.5l-5.5 3v-2l-3-2V25Z" fill="#FFC926" stroke="#FFC926"/><path d="M58.162 31.705H42.745v-4.63a3.842 3.842 0 0 0-3.838-3.837l-19.069-.008A3.836 3.836 0 0 0 16 27.061v12.212a3.842 3.842 0 0 0 3.838 3.838h.712v2.156c0 .381.208.726.546.906a1.048 1.048 0 0 0 1.064-.05l4.506-3.012h8.597v4.636a3.834 3.834 0 0 0 3.83 3.831h12.248l4.506 3.019a1.037 1.037 0 0 0 1.064.05c.338-.18.547-.525.547-.906v-2.156h.711a3.847 3.847 0 0 0 3.845-3.83V35.55c-.014-2.12-1.739-3.845-3.852-3.845Zm-21.843 9.343H26.343c-.201 0-.403.058-.575.173l-3.163 2.113v-1.258c0-.568-.46-1.028-1.027-1.028h-1.74a1.78 1.78 0 0 1-1.775-1.775V27.061a1.78 1.78 0 0 1 1.775-1.775l19.069.007a1.78 1.78 0 0 1 1.775 1.776v12.204a1.78 1.78 0 0 1-1.775 1.775h-2.588Zm23.618 6.706a1.78 1.78 0 0 1-1.782 1.776h-1.74c-.568 0-1.027.46-1.027 1.027v1.258l-3.163-2.12a1.02 1.02 0 0 0-.575-.173H39.086a1.78 1.78 0 0 1-1.775-1.775v-4.636h1.588a3.842 3.842 0 0 0 3.838-3.838v-5.52h15.418c.984 0 1.782.798 1.782 1.782v12.22Z" fill="#61B7FE"/><path d="M32.789 36.096a.413.413 0 0 0-.158-.086 3.42 3.42 0 0 1-.273-.108 4.246 4.246 0 0 1-.424-.223c-.166-.1-.36-.244-.575-.43.143-.145.273-.31.38-.497.116-.187.209-.395.28-.625.08-.23.137-.474.173-.74.044-.266.058-.554.058-.856 0-.59-.072-1.092-.209-1.523a2.625 2.625 0 0 0-.61-1.064 2.463 2.463 0 0 0-.985-.626c-.388-.136-.841-.2-1.344-.2-.54 0-1.014.078-1.416.244a2.82 2.82 0 0 0-1.028.704c-.273.309-.482.676-.625 1.114a4.977 4.977 0 0 0-.209 1.48c0 .604.065 1.13.194 1.568.13.438.33.797.59 1.085.258.28.589.489.984.625.396.137.856.201 1.38.201.28 0 .532-.028.762-.079.23-.057.424-.115.582-.194.195.223.403.417.626.582a4.694 4.694 0 0 0 1.265.705c.187.065.337.093.453.093a.145.145 0 0 0 .079-.021.149.149 0 0 0 .064-.08.693.693 0 0 0 .05-.18c.015-.078.022-.179.022-.3 0-.16-.007-.281-.029-.367-.021-.087-.014-.166-.057-.202Zm-2.063-2.566a2.247 2.247 0 0 1-.295.762 1.456 1.456 0 0 1-.553.51c-.23.13-.51.187-.848.187-.338 0-.618-.057-.841-.165a1.277 1.277 0 0 1-.532-.481c-.13-.209-.23-.46-.28-.762a5.305 5.305 0 0 1-.086-1.007c0-.316.028-.61.086-.898a2.17 2.17 0 0 1 .294-.748c.137-.215.324-.38.554-.51.23-.13.51-.187.848-.187.338 0 .618.058.84.173.224.115.403.273.54.481.137.209.23.46.288.748.057.287.086.61.086.963-.008.33-.043.64-.1.934Zm18.896 4.737a.505.505 0 0 0-.079-.165c-.029-.044-.086-.072-.158-.094a1.08 1.08 0 0 0-.302-.036c-.13-.007-.302-.007-.525-.007-.187 0-.337 0-.453.007a1.715 1.715 0 0 0-.265.036.306.306 0 0 0-.144.086.49.49 0 0 0-.08.151l-2.213 6.368c-.043.13-.072.23-.086.31-.015.079 0 .136.036.18.036.042.1.071.2.078.094.015.23.015.403.015.158 0 .288-.008.388-.015a.813.813 0 0 0 .23-.043.243.243 0 0 0 .116-.086.536.536 0 0 0 .057-.13l.453-1.401h2.695l.482 1.445c.014.05.036.086.057.115.022.028.058.05.115.072.058.014.137.028.245.035.107.008.251.008.438.008.18 0 .324-.008.424-.015a.379.379 0 0 0 .216-.072c.043-.036.057-.093.043-.172a1.79 1.79 0 0 0-.086-.316l-2.207-6.354Zm-2.091 4.147 1.013-3.047h.007l1.014 3.047H47.53Z" fill="#fff"/></g><defs><clipPath id="a"><path fill="#fff" transform="translate(16 16)" d="M0 0h46v46H0z"/></clipPath></defs></svg>