<svg width="78" height="78" fill="none" xmlns="http://www.w3.org/2000/svg"><rect width="78" height="78" rx="39" fill="#F5F9FF"/><g clip-path="url(#a)"><path d="M39 37.625a4.813 4.813 0 0 0-4.813 4.813v1.374a4.812 4.812 0 0 0 2.063 3.926 4.812 4.812 0 0 0 5.562 0 4.812 4.812 0 0 0 2-3.925v-1.376A4.813 4.813 0 0 0 39 37.626Zm3.438 6.188a3.438 3.438 0 0 1-6.876 0v-1.376a3.438 3.438 0 0 1 6.876 0v1.376ZM29.373 41.063a4.125 4.125 0 0 0-4.125 4.124v1.376a4.125 4.125 0 0 0 1.636 3.286 6.62 6.62 0 0 0-3.794 4.764l-.468 2.262-.124.55a.687.687 0 0 0 .688.825h7.562a.687.687 0 0 0 .688-.543l.165-.832.584-2.75c.099-.472.246-.933.44-1.375.112-.238.24-.468.385-.688a6.894 6.894 0 0 1 .303-.474.688.688 0 0 0-.138-.942 6.263 6.263 0 0 0-.564-.385 5.491 5.491 0 0 0-.742-.392 4.125 4.125 0 0 0 1.63-3.306v-1.376a4.125 4.125 0 0 0-4.126-4.124Zm2.434 10.312c-.096.151-.179.316-.261.474-.083.159-.062.124-.09.186-.027.062-.137.296-.199.447a7.77 7.77 0 0 0-.268.797c-.06.188-.111.378-.151.571l-.647 3.025h-6.187l.405-1.987a5.143 5.143 0 0 1 4.964-4.2c.86.006 1.703.244 2.44.687h-.006Zm.316-4.813a2.75 2.75 0 1 1-5.5 0v-1.374a2.75 2.75 0 1 1 5.5 0v1.374Zm23.252 10.313-.468-2.262a6.765 6.765 0 0 0-2.234-3.809 6.29 6.29 0 0 0-1.554-.962 4.125 4.125 0 0 0 1.63-3.28v-1.374a4.125 4.125 0 0 0-8.25 0v1.374a4.125 4.125 0 0 0 1.629 3.28 5.485 5.485 0 0 0-.743.392 6.263 6.263 0 0 0-.564.385.687.687 0 0 0-.137.942c.545.77.929 1.642 1.127 2.564l.585 2.75.165.832a.687.687 0 0 0 .687.543h7.563a.687.687 0 0 0 .687-.825l-.123-.55Zm-9.502-10.313v-1.374a2.75 2.75 0 1 1 5.5 0v1.374a2.75 2.75 0 1 1-5.5 0Zm1.932 10.313-.646-3.032a5.378 5.378 0 0 0-.151-.57 9.196 9.196 0 0 0-.241-.736 5.487 5.487 0 0 0-.268-.598c-.095-.2-.2-.396-.316-.585a4.812 4.812 0 0 1 2.44-.666 4.86 4.86 0 0 1 3.163 1.168 5.39 5.39 0 0 1 1.773 3.032l.406 1.987h-6.16ZM34.184 58.25h-.137a.688.688 0 0 1-.55-.825l.687-3.438a.7.7 0 1 1 1.375.275l-.687 3.438a.688.688 0 0 1-.688.55Zm9.708 0a.687.687 0 0 1-.688-.516l-.852-3.403a.687.687 0 0 1 1.333-.337l.853 3.403a.688.688 0 0 1-.646.853Z" fill="#1198FF"/><path d="M25.934 58.25a.69.69 0 0 1-.165 0 .687.687 0 0 1-.522-.852l.687-2.75a.688.688 0 0 1 1.334.33l-.688 2.75a.688.688 0 0 1-.646.522Zm26.125 0a.687.687 0 0 1-.688-.523l-.687-2.75a.71.71 0 0 1 .523-.852.707.707 0 0 1 .852.523l.688 2.75a.685.685 0 0 1-.523.852.69.69 0 0 1-.165 0Z" fill="#1198FF"/><path d="M58.25 57.563a.687.687 0 0 1-.688.687H20.438a.687.687 0 1 1 0-1.375h37.124a.687.687 0 0 1 .688.688Z" fill="#1198FF"/><path d="m27.788 33.504.844 1.477a1 1 0 0 0 1.736 0l.844-1.477A1 1 0 0 1 32.08 33H37a1 1 0 0 1 .8.4l.425.567a1 1 0 0 0 1.581.025l.861-1.076a1 1 0 0 1 .864-.372l4.87.406a1 1 0 0 1 .836.603l.563 1.314a1 1 0 0 0 1.733.187l1.168-1.635a1 1 0 0 1 .814-.419H54.5a3 3 0 0 0 3-3v-6.5a3 3 0 0 0-3-3H25a4 4 0 0 0-4 4V30a3 3 0 0 0 3 3h2.92a1 1 0 0 1 .868.504Z" fill="#61B7FE"/><path d="M53.438 19.75H24.561a4.813 4.813 0 0 0-4.812 4.813v4.125a4.813 4.813 0 0 0 4.813 4.812h2.323l1.877 3.747a.688.688 0 0 0 1.224 0l1.877-3.747h5.335l1.19 2.372a.688.688 0 0 0 1.223 0l1.19-2.372h5.334l1.877 3.747a.688.688 0 0 0 1.224 0l1.877-3.747h2.324a4.813 4.813 0 0 0 4.812-4.813v-4.125a4.813 4.813 0 0 0-4.813-4.812Zm3.437 8.938a3.438 3.438 0 0 1-3.438 3.437h-2.75a.687.687 0 0 0-.611.378l-1.451 2.895-1.45-2.895a.688.688 0 0 0-.612-.378h-6.188a.687.687 0 0 0-.612.378L39 34.023l-.763-1.52a.688.688 0 0 0-.612-.378h-6.188a.687.687 0 0 0-.611.378l-1.451 2.895-1.45-2.895a.688.688 0 0 0-.613-.378h-2.75a3.438 3.438 0 0 1-3.437-3.438v-4.125a3.438 3.438 0 0 1 3.438-3.437h28.875a3.438 3.438 0 0 1 3.437 3.438v4.125ZM47.805 56.875l-.647-3.032a5.355 5.355 0 0 0-.151-.57 9.155 9.155 0 0 0-.24-.736c-.09-.24-.173-.406-.269-.598-.094-.2-.2-.396-.316-.585a6.633 6.633 0 0 0-.797-1.12 8.345 8.345 0 0 0-6.387-2.984 8.064 8.064 0 0 0-2.75.488 8.25 8.25 0 0 0-3.61 2.496 7.754 7.754 0 0 0-.412.53c-.13.185-.13.178-.186.274-.055.096-.137.206-.2.316-.061.11 0 0 0 0-.096.152-.178.317-.26.475-.083.158-.062.123-.09.185-.027.062-.137.296-.2.447-.103.261-.192.527-.267.798-.061.187-.112.377-.152.57l-.68 3.046-.117.543a.69.69 0 0 0 .674.832h16.5a.687.687 0 0 0 .687-.832l-.13-.543Zm-16.205 0 .584-2.75c.099-.472.247-.933.44-1.375.112-.238.24-.468.386-.688.031-.064.068-.126.11-.185l.199-.289a6.956 6.956 0 0 1 10.058-1.375c.495.398.934.86 1.306 1.375a6.979 6.979 0 0 1 1.128 2.537l.584 2.75H31.6Z" fill="#1198FF"/><path d="m29.324 23.69.908 1.643 1.842.357-1.278 1.375.226 1.856-1.698-.79-1.698.79.227-1.856-1.279-1.375 1.836-.357.914-1.643ZM41.447 26.928a1.39 1.39 0 0 0-1.966-1.967L39 25.45l-.495-.489a1.374 1.374 0 1 0-1.946 1.94L39 29.374l2.448-2.447ZM48.574 24.377l.908 1.643 1.842.358-1.279 1.375.227 1.856-1.698-.79-1.705.79.227-1.856-1.272-1.375 1.836-.358.914-1.643Z" fill="#FFC926"/></g><defs><clipPath id="a"><path fill="#fff" transform="translate(17 17)" d="M0 0h44v44H0z"/></clipPath></defs></svg>