<svg width="82" height="82" viewBox="0 0 82 82" fill="none" xmlns="http://www.w3.org/2000/svg">
<rect width="82" height="82" rx="40" fill="#F5F9FF"/>
<path d="M63.5016 41.1C63.5016 28.6 53.5016 18.4 41.1016 18C48.0016 22.3 52.7016 31.7 52.7016 42.6C52.7016 51.1 49.8016 58.7 45.2016 63.7C55.6016 61.5 63.5016 52.2 63.5016 41.1Z" fill="#1198FF"/>
<path d="M41.0992 18C40.9992 18 40.8992 18 40.6992 18V64.2C42.1992 64.2 43.6992 64 45.1992 63.7C49.7992 58.7 52.6992 51.1 52.6992 42.6C52.6992 31.7 47.8992 22.4 41.0992 18Z" fill="#61B7FE"/>
<path d="M18 41.1C18 28.6 28 18.4 40.4 18C33.5 22.3 28.8 31.7 28.8 42.6C28.8 51.1 31.7 58.7 36.3 63.7C25.9 61.5 18 52.2 18 41.1Z" fill="#61B7FE"/>
<path d="M40.5 18C40.6 18 40.7 18 40.9 18V64.2C39.4 64.2 37.9 64 36.4 63.7C31.8 58.7 28.9 51.1 28.9 42.6C28.8 31.7 33.6 22.4 40.5 18Z" fill="#1198FF"/>
<path d="M63.5016 40.9984L18.1016 40.8984V40.9984C18.1016 41.2984 18.1016 41.4984 18.1016 41.7984H63.5016C63.5016 41.5984 63.5016 41.2984 63.5016 40.9984Z" fill="#3BA7FF"/>
<path d="M59.9008 29.0008C59.7008 28.8008 59.6008 28.5008 59.4008 28.3008C55.1008 31.7008 48.2008 33.9008 40.5008 33.9008C32.9008 33.9008 26.1008 31.8008 21.8008 28.5008C21.6008 28.7008 21.5008 29.0008 21.3008 29.2008C25.8008 32.6008 32.7008 34.8008 40.5008 34.8008C48.4008 34.7008 55.4008 32.5008 59.9008 29.0008Z" fill="#3BA7FF"/>
<path d="M40.6016 25.6016C44.8016 25.6016 48.4016 23.6016 50.7016 20.5016C50.4016 20.4016 50.1016 20.2016 49.9016 20.1016C47.8015 22.9016 44.4016 24.7016 40.6016 24.7016C36.9016 24.7016 33.5016 22.9016 31.4016 20.2016C31.1016 20.3016 30.8016 20.5016 30.6016 20.6016C32.9016 23.6016 36.5016 25.6016 40.6016 25.6016Z" fill="#3BA7FF"/>
<path d="M59.9008 53.1984C59.7008 53.3984 59.6008 53.6984 59.4008 53.8984C55.1008 50.4984 48.2008 48.2984 40.5008 48.2984C32.9008 48.2984 26.1008 50.3984 21.8008 53.6984C21.6008 53.4984 21.5008 53.1984 21.3008 52.9984C25.8008 49.5984 32.7008 47.3984 40.5008 47.3984C48.4008 47.4984 55.4008 49.6984 59.9008 53.1984Z" fill="#3BA7FF"/>
<path d="M45.4984 36.8016L45.2985 36.4016L44.3984 35.5016L44.5984 35.0016L45.8984 35.9016L49.2985 34.3016L45.6985 30.4016L46.0984 30.1016L47.7985 31.2016C48.0985 31.0016 48.4984 31.3016 48.3984 31.6016L49.2985 32.2016C49.5985 32.0016 49.9984 32.3016 49.8984 32.6016L50.9984 33.4016L52.6985 32.7016C53.0985 32.7016 53.2984 32.8016 53.4984 33.1016L45.4984 36.8016Z" fill="#2468E5"/>
<path d="M45.2969 36.4L45.4969 36.8V38.1L45.9969 38.3L46.2969 36.7L49.8969 35.3L50.1969 40.6L50.6969 40.5L51.0969 38.5C51.4969 38.4 51.4969 37.9 51.1969 37.8L51.3969 36.7C51.6969 36.6 51.7969 36.1 51.4969 36L51.6969 34.6L53.2969 33.8C53.5969 33.5 53.5969 33.3 53.5969 33L45.2969 36.4Z" fill="#2468E5"/>
<path d="M46.1016 33.9008L45.9016 33.4008L44.6016 32.1008L44.9016 31.4008L46.8016 32.7008L51.8016 30.3008L46.5016 24.7008L47.1016 24.3008L49.6016 25.9008C50.1016 25.6008 50.6016 26.0008 50.4016 26.4008L51.8016 27.3008C52.2016 27.1008 52.8016 27.5008 52.6016 27.9008L54.2016 29.1008L56.7016 28.1008C57.2016 28.1008 57.6016 28.3008 57.8016 28.6008L46.1016 33.9008Z" fill="#FFC926"/>
<path d="M45.8008 33.4031L46.0008 33.9031L46.1008 35.8031L46.8008 36.1031L47.2008 33.8031L52.4008 31.8031L52.9008 39.5031L53.6008 39.4031L54.1008 36.5031C54.6008 36.3031 54.7008 35.7031 54.3008 35.6031L54.6008 34.0031C55.0008 33.9031 55.2008 33.1031 54.7008 33.0031L54.9008 31.0031L57.3008 29.9031C57.7008 29.5031 57.8008 29.1031 57.7008 28.7031L45.8008 33.4031Z" fill="#FFC926"/>
<path d="M43 35.1016L19 47.1016" stroke="white" stroke-linecap="round"/>
</svg>
